<svg width="28" height="18" viewBox="0 0 28 18" fill="none" xmlns="http://www.w3.org/2000/svg">
<path d="M14.0999 0.887868C8.749 0.887868 4.99538 2.98684 4.99538 2.98684C7.05189 1.30766 10.6458 0.340312 10.6458 0.340312L10.3064 0.0300293C6.93209 0.084785 3.87728 2.22026 3.87728 2.22026C0.443109 8.77268 0.662737 14.4308 0.662737 14.4308C3.45799 17.7344 7.61094 17.4971 7.61094 17.4971L9.02853 15.8544C6.53277 15.3616 4.95544 13.3357 4.95544 13.3357C4.95544 13.3357 8.70907 15.6719 14.0999 15.6719C19.4908 15.6719 23.2444 13.3357 23.2444 13.3357C23.2444 13.3357 21.6671 15.3616 19.1713 15.8544L20.5889 17.4971C20.5889 17.4971 24.7418 17.7344 27.5371 14.4308C27.5371 14.4308 27.7567 8.77268 24.3225 2.22026C24.3225 2.22026 21.2677 0.084785 17.8935 0.0300293L17.554 0.340312C17.554 0.340312 21.1479 1.30766 23.2044 2.98684C23.2044 2.98684 19.4508 0.887868 14.0999 0.887868ZM9.96693 7.80533C11.2647 7.80533 12.3229 8.84569 12.303 10.1233C12.303 11.3827 11.2647 12.4413 9.96693 12.4413C8.6891 12.4413 7.65087 11.3827 7.65087 10.1233C7.65087 8.84569 8.66914 7.80533 9.96693 7.80533ZM18.2928 7.80533C19.5906 7.80533 20.6288 8.84569 20.6288 10.1233C20.6288 11.3827 19.5906 12.4413 18.2928 12.4413C17.015 12.4413 15.9767 11.3827 15.9767 10.1233C15.9767 8.84569 16.995 7.80533 18.2928 7.80533Z" fill="white"/>
</svg>
