<svg width="26" height="24" viewBox="0 0 26 24" fill="none" xmlns="http://www.w3.org/2000/svg">
<path d="M10.9192 12.5217C12.1791 13.2947 12.79 13.6425 13.5154 13.6425C14.2408 13.6425 14.8899 13.256 16.1116 12.5217L24.0529 7.88406C24.4347 7.61353 24.6637 7.2657 24.6637 6.87923C24.6637 6.49275 24.3965 5.99034 24.0529 5.75845L15.9971 1.12077C14.7372 0.347826 14.1263 0 13.4009 0C12.6755 0 12.0264 0.386474 10.8047 1.12077L3.97063 5.10145C3.97063 5.10145 3.85609 5.10145 3.85609 5.21739C1.48899 6.6087 0 9.27536 0 12.0193V12.2899C0 15.0725 1.48899 17.5845 3.85609 19.0918L3.97063 19.2077L8.32305 21.7198C10.8047 23.2271 12.1791 24 13.5536 24C14.928 24 16.1498 23.2271 18.7841 21.7198L23.3656 19.0918C24.6256 18.3188 25.2364 17.971 25.6182 17.314C26 16.6957 26 15.9227 26 14.4155V11.5169C26 11.1304 25.7327 10.744 25.3891 10.5121C25.0073 10.2415 24.6255 10.2415 24.2819 10.5121L14.7753 16.0386C14.1645 16.4251 13.7827 16.5411 13.5154 16.5411C13.1336 16.5411 12.9046 16.4251 12.2555 16.0386L5.91777 12.2512C5.42144 11.9807 5.3069 11.9807 5.15418 11.8647C4.88693 11.8647 4.54332 11.9807 4.3906 12.2512V13.372C4.3906 13.6425 4.65786 13.8744 4.77239 14.1449C4.88693 14.4155 5.03965 14.4155 5.26872 14.6473L12.1028 18.6667C12.7137 19.0531 13.0954 19.1691 13.3627 19.1691C13.7445 19.1691 13.9736 19.0531 14.6226 18.6667L22.9457 13.7971C23.2129 13.6812 23.3275 13.5266 23.3275 13.6812C23.442 13.6812 23.442 13.7971 23.442 14.0676V15.343C23.442 15.7295 23.442 15.8454 23.3275 16.1159C23.2129 16.2319 23.0602 16.3865 22.7166 16.5024L15.8825 20.4444C14.6226 21.2174 14.0117 21.5652 13.2863 21.5652C12.5609 21.5652 11.9119 21.1787 10.6902 20.4444L4.23789 16.657C2.97797 15.8841 2.25257 14.3768 2.25257 12.7536V11.4783C2.25257 10.5894 2.7489 9.85507 3.51248 9.35266C4.12335 8.96618 5.00147 8.96618 5.61233 9.35266L10.9192 12.5217Z" fill="white"/>
</svg>
