<svg width="128" height="47" viewBox="0 0 128 47" fill="none" xmlns="http://www.w3.org/2000/svg">
<path fill-rule="evenodd" clip-rule="evenodd" d="M43.9722 32.056V38.6514H50.7369V32.056H43.9722ZM43.9722 0.09375V27.49H50.7369V0.09375H43.9722ZM10.147 0.0939981C4.54296 0.0939981 0 4.63686 0 10.2408V38.6517H6.76466V22.4169H20.294V15.6524H6.76466V10.2408C6.76466 8.37279 8.27898 6.8585 10.147 6.8585H20.294V0.0939981H10.147ZM120.006 33.8037V0.0939981H113.241V26.5317L98.6891 2.49012C96.2072 -1.61019 89.9028 0.149114 89.9028 4.942V38.6517H96.6674V12.214L111.219 36.2555C113.701 40.3559 120.006 38.5966 120.006 33.8037ZM35.1739 38.6514C29.5699 38.6514 25.0269 34.1086 25.0269 28.5047V0.09375H31.7915V28.5047C31.7915 30.3726 33.3059 31.8869 35.1739 31.8869H37.8797V38.6514H35.1739ZM56.4819 24.7849V11.2559H63.2466V13.5407C65.7264 12.0783 68.672 11.2559 71.7024 11.2559C79.6005 11.2559 86.9229 16.8427 86.9229 24.7849C86.9229 32.7271 79.6005 38.3139 71.7024 38.3139C68.672 38.3139 65.7264 37.4914 63.2466 36.029V46.0931H56.4819V24.7849ZM63.2466 24.7849C63.2466 28.0504 66.5244 31.5494 71.7024 31.5494C76.8803 31.5494 80.1582 28.0504 80.1582 24.7849C80.1582 21.5193 76.8803 18.0204 71.7024 18.0204C66.5244 18.0204 63.2466 21.5193 63.2466 24.7849Z" fill="white"/>
<path d="M121.674 6.37642L82.873 19.731L84.609 21.5586L84.0249 23.9789L85.3352 25.4476L85.1099 27.4423L86.4202 28.9111L86.195 30.9057L87.4719 31.9822L87.2132 33.5846L126.473 20.9811L124.378 19.5791L125.355 17.1255L123.652 15.6901L124.236 13.2698L122.567 12.2267L123.185 10.1987L121.449 8.37103L121.674 6.37642Z" fill="#FBCA04" fill-opacity="0.8" stroke="black" stroke-width="2" stroke-linejoin="round"/>
</svg>
