<svg width="24" height="24" viewBox="0 0 24 24" fill="none" xmlns="http://www.w3.org/2000/svg">
<path d="M5.88141 9.17647H2.16C1.8977 10.0947 1.76513 11.0451 1.76612 12C1.76612 12.9798 1.90306 13.9271 2.16141 14.8235H5.88282C5.72753 13.92 5.64847 12.9784 5.64847 12C5.64847 11.0216 5.72753 10.08 5.88282 9.17647H5.88141ZM7.31717 9.17647C7.14179 10.1073 7.05528 11.0528 7.05882 12C7.05882 12.9854 7.14353 13.9271 7.31717 14.8235H11.2941V9.17647H7.31717ZM9.38541 21.8979C7.87967 20.2966 6.78568 18.3532 6.19765 16.2353H2.67953C3.30884 17.6164 4.23675 18.8407 5.39636 19.8199C6.55597 20.7991 7.91839 21.5088 9.38541 21.8979ZM11.2941 21.7991V16.2353H7.67012C8.33365 18.3614 9.5407 20.2122 11.2941 21.8005V21.7991ZM9.38541 2.10353C7.91853 2.49244 6.55619 3.20194 5.39659 4.18089C4.23699 5.15984 3.30901 6.38385 2.67953 7.7647H6.19765C6.78527 5.64688 7.87876 3.70359 9.384 2.10212L9.38541 2.10353ZM11.2941 2.20235C9.5407 3.78635 8.33506 5.63718 7.67012 7.7647H11.2941V2.19953V2.20235ZM18.1186 9.17647C18.2739 10.08 18.3529 11.0216 18.3529 12C18.3529 12.9784 18.2739 13.92 18.1186 14.8235H21.8414C22.0984 13.9271 22.2353 12.9798 22.2353 12C22.2353 11.0202 22.0984 10.0729 21.84 9.17647H18.1186ZM16.6828 9.17647H12.7059V14.8235H16.6828C16.8551 13.9271 16.9412 12.9854 16.9412 12C16.9412 11.0146 16.8565 10.0729 16.6828 9.17647ZM14.6146 21.8979C16.0816 21.5088 17.444 20.7991 18.6036 19.8199C19.7633 18.8407 20.6912 17.6164 21.3205 16.2353H17.8024C17.2147 18.3531 16.1212 20.2964 14.616 21.8979H14.6146ZM12.7059 21.7991C14.4593 20.2122 15.6649 18.3614 16.3299 16.2353H12.7059V21.8005V21.7991ZM14.6146 2.10353C16.1201 3.70446 17.2141 5.64725 17.8024 7.7647H21.3219C20.6926 6.38358 19.7647 5.1593 18.6051 4.1801C17.4454 3.2009 16.083 2.49118 14.616 2.10212L14.6146 2.10353ZM12.7059 2.20235V7.7647H16.3299C15.6664 5.63859 14.4593 3.78776 12.7059 2.19953V2.20235ZM12 24C8.8174 24 5.76515 22.7357 3.51472 20.4853C1.26428 18.2348 0 15.1826 0 12C0 8.8174 1.26428 5.76515 3.51472 3.51472C5.76515 1.26428 8.8174 0 12 0C15.1826 0 18.2348 1.26428 20.4853 3.51472C22.7357 5.76515 24 8.8174 24 12C24 15.1826 22.7357 18.2348 20.4853 20.4853C18.2348 22.7357 15.1826 24 12 24Z" fill="white"/>
</svg>
